<?xml version="1.0" standalone="no"?>
<!DOCTYPE svg PUBLIC "-//W3C//DTD SVG 20010904//EN"
 "http://www.w3.org/TR/2001/REC-SVG-20010904/DTD/svg10.dtd">
<svg version="1.0" xmlns="http://www.w3.org/2000/svg"
 width="566.000000pt" height="566.000000pt" viewBox="0 0 566.000000 566.000000"
 preserveAspectRatio="xMidYMid meet">
<metadata>
Created by potrace 1.11, written by Peter Selinger 2001-2013
</metadata>
<g transform="translate(0.000000,566.000000) scale(0.100000,-0.100000)"
fill="#000000" stroke="none">
<path d="M0 4456 l0 -1204 41 -41 c40 -39 41 -41 29 -77 -7 -22 -24 -43 -41
-53 l-29 -16 0 -244 0 -244 62 7 c35 4 105 9 157 11 63 3 97 8 102 17 6 9 33
13 86 13 73 0 79 2 92 25 8 14 15 36 17 50 1 14 12 50 23 80 12 30 21 55 21
56 0 1 -15 4 -32 7 -117 19 -192 46 -215 76 -24 34 2 40 161 41 174 1 220 8
267 41 44 30 62 53 90 109 12 25 28 53 36 62 23 27 -13 38 -119 38 -102 0
-123 8 -133 51 -8 34 46 95 134 153 73 48 86 60 151 136 55 64 66 95 78 205
10 89 26 124 67 151 33 21 93 11 143 -25 52 -39 64 -81 56 -212 -6 -95 -5
-107 15 -140 12 -20 34 -61 49 -90 29 -57 60 -75 69 -41 5 21 58 52 86 52 17
0 33 18 24 26 -3 3 -31 7 -63 10 -33 3 -67 6 -78 7 -11 1 -24 17 -34 42 -9 22
-20 43 -25 46 -11 7 -5 59 16 154 17 81 42 94 107 60 112 -59 194 -73 243 -40
15 9 27 14 27 10 0 -5 8 -1 17 7 10 8 40 28 67 43 44 26 58 29 135 27 47 0 93
-3 101 -5 8 -2 27 -7 42 -11 38 -11 74 25 81 81 7 55 85 222 160 343 33 52 75
128 93 168 34 76 71 116 141 157 49 29 89 32 97 8 8 -24 36 -175 36 -191 0 -6
-21 -18 -47 -25 -25 -6 -59 -24 -75 -39 -23 -21 -28 -34 -28 -73 0 -51 9 -72
52 -125 20 -25 37 -36 59 -38 43 -3 59 13 59 59 0 22 5 39 10 39 6 0 10 -4 10
-10 0 -5 4 -10 10 -10 5 0 11 41 12 91 l3 91 43 2 c40 2 42 1 42 -26 0 -15 5
-28 11 -28 8 0 8 -5 -1 -15 -10 -12 -10 -18 0 -30 11 -13 10 -18 -5 -28 -28
-21 -15 -50 28 -60 28 -7 39 -15 43 -34 14 -53 145 -85 235 -58 79 24 99 36
115 67 25 48 57 38 88 -27 21 -45 30 -55 50 -55 14 0 27 -4 30 -9 6 -9 52 -18
145 -27 66 -7 131 10 131 34 0 15 2 15 10 2 8 -13 10 -12 10 3 0 12 9 17 33
18 17 1 36 1 40 0 13 -2 67 29 67 39 0 5 -8 13 -17 19 -16 9 -16 13 -5 31 11
18 11 24 0 37 -12 15 -9 16 20 10 17 -4 32 -3 32 1 0 4 12 20 26 35 23 25 27
27 38 12 7 -9 19 -16 27 -15 29 4 38 0 32 -16 -3 -8 0 -26 7 -38 10 -19 9 -28
0 -47 -10 -17 -10 -24 -1 -27 16 -5 14 -19 -9 -42 -21 -21 -29 -103 -11 -114
4 -3 28 -2 52 3 24 5 35 9 24 10 -14 1 -16 4 -7 13 8 8 15 8 28 -3 14 -12 19
-10 35 10 24 30 24 41 -1 41 -11 0 -20 -4 -20 -10 0 -5 -7 -10 -14 -10 -12 0
-13 6 -4 31 7 20 13 27 18 19 4 -7 16 -9 29 -5 19 6 28 -9 19 -31 -5 -10 30
-24 45 -18 8 3 20 25 26 50 13 52 3 80 -35 94 -25 10 -31 24 -15 34 36 23 76
-55 76 -148 0 -81 -22 -137 -67 -170 -24 -17 -31 -18 -53 -6 -14 7 -25 19 -25
27 0 7 -10 13 -23 13 -20 0 -25 -9 -41 -82 -11 -46 -23 -90 -27 -98 -5 -8 -12
-31 -17 -50 -9 -38 -34 -48 -38 -15 -1 11 -6 40 -11 65 l-9 45 -124 0 c-107 0
-127 2 -138 18 -7 9 -20 17 -28 17 -8 0 -17 7 -20 15 -4 8 -16 15 -28 15 -12
0 -31 8 -42 18 -23 21 -101 52 -132 52 -31 0 -27 -19 10 -51 29 -24 32 -29 23
-55 -10 -28 -12 -29 -95 -33 -222 -11 -262 -2 -268 56 -2 24 3 39 22 58 30 30
33 42 9 47 -19 4 -90 -18 -108 -32 -5 -4 -29 -13 -52 -19 -24 -7 -43 -16 -43
-21 0 -6 -8 -10 -19 -10 -10 0 -30 -9 -45 -21 -14 -11 -30 -18 -34 -15 -12 7
-52 -84 -52 -117 0 -35 41 -116 58 -117 9 0 11 7 7 19 -3 10 1 24 10 31 13 10
19 10 33 -4 10 -9 22 -13 25 -9 4 3 7 -5 7 -18 0 -17 -3 -20 -9 -10 -5 8 -8
-6 -6 -38 2 -38 -1 -51 -11 -51 -20 0 -18 -9 13 -54 15 -23 28 -42 29 -44 5
-8 54 32 54 44 0 7 5 25 12 39 9 20 17 25 32 20 12 -4 27 -7 34 -7 10 -1 16
-13 10 -20 -2 -2 5 -14 14 -27 9 -13 14 -29 12 -36 -8 -20 30 -83 80 -130 57
-53 59 -68 10 -59 -24 4 -39 3 -44 -5 -5 -10 -16 -9 -45 3 -20 9 -40 16 -43
16 -2 0 -2 -19 2 -42 7 -43 7 -50 4 -88 -4 -41 -18 -18 -19 33 -3 83 -3 87
-14 88 -19 2 -34 -69 -37 -170 -3 -91 -5 -100 -23 -103 -10 -2 -32 -21 -47
-43 -21 -31 -27 -51 -27 -90 0 -27 3 -44 6 -37 5 14 39 16 47 3 7 -11 -37
-199 -53 -229 -6 -12 -11 -31 -11 -45 0 -45 -44 -140 -145 -309 -5 -9 -42 -63
-80 -120 -39 -57 -78 -119 -87 -138 -82 -174 -104 -227 -130 -305 -17 -49 -45
-115 -64 -145 -19 -31 -34 -63 -34 -71 0 -9 -6 -22 -14 -28 -7 -6 -16 -37 -19
-69 -4 -43 -18 -84 -60 -164 -30 -58 -68 -124 -84 -145 -16 -21 -51 -74 -78
-118 -44 -74 -86 -135 -108 -160 -5 -6 -7 29 -5 86 3 92 4 98 34 128 26 27 32
42 37 94 7 79 11 88 47 112 17 11 30 26 30 33 0 8 21 57 46 109 35 73 44 101
39 124 -8 35 5 76 61 198 24 51 44 95 44 98 0 17 199 399 238 456 27 40 57 88
67 107 9 19 42 71 72 116 43 64 56 92 62 137 5 35 16 66 28 80 14 15 29 64 47
147 34 156 133 463 159 491 19 20 44 21 40 0 -2 -6 7 -11 18 -11 20 0 18 3
-12 30 -50 44 -58 53 -79 80 l-18 25 -44 -21 c-23 -12 -69 -29 -102 -38 -67
-20 -123 -53 -130 -78 -5 -22 -38 -36 -44 -20 -2 7 -10 18 -17 26 -9 9 -15 55
-18 152 -5 118 -17 277 -31 401 -2 17 -7 36 -10 42 -10 15 -45 9 -51 -10 -7
-21 -66 -46 -127 -54 -41 -5 -50 -11 -63 -38 -8 -18 -26 -45 -40 -61 -14 -16
-25 -33 -25 -38 0 -5 -11 -14 -25 -20 -14 -6 -25 -15 -25 -20 0 -9 -39 -48
-77 -78 -11 -8 -34 -39 -52 -69 -18 -30 -42 -62 -53 -71 -30 -24 -5 -40 53
-33 39 4 47 9 59 37 8 17 31 48 52 68 21 20 38 40 38 45 0 5 13 22 30 38 27
26 31 27 51 13 20 -13 22 -22 20 -73 -1 -32 -7 -70 -13 -84 -5 -14 -11 -39
-13 -54 -11 -89 -34 -119 -74 -97 -27 14 -51 13 -51 -2 -1 -21 -43 -64 -75
-76 -16 -6 -70 -21 -120 -33 -49 -12 -95 -25 -101 -30 -22 -18 -120 -42 -174
-42 -88 -1 -145 12 -193 44 -56 37 -75 78 -59 123 23 63 11 84 -24 45 -30 -33
-72 -45 -179 -53 -133 -9 -165 -15 -165 -32 0 -8 4 -14 10 -14 21 0 40 -60 40
-127 0 -76 5 -84 73 -115 34 -16 37 -21 37 -57 0 -32 -6 -44 -31 -65 -17 -14
-41 -29 -55 -32 -13 -3 -24 -10 -24 -14 0 -4 -17 -15 -38 -23 -21 -8 -44 -22
-51 -31 -8 -9 -18 -16 -23 -16 -11 0 -68 -58 -68 -69 0 -5 24 -11 53 -14 86
-9 91 -12 102 -45 7 -24 15 -32 32 -32 13 0 23 -4 23 -10 0 -6 99 -9 267 -7
l267 2 12 25 c7 14 21 61 31 105 l18 80 3 -54 c4 -68 -15 -223 -27 -231 -15
-8 -23 -118 -10 -126 6 -3 24 8 39 25 16 17 34 31 39 31 27 0 51 36 51 75 1
35 29 110 30 78 0 -8 16 -11 48 -10 44 1 47 0 45 -23 -1 -14 -5 -38 -8 -55 -7
-29 -6 -29 46 21 30 28 82 72 117 99 34 26 62 51 62 54 0 3 22 21 50 40 55 38
89 37 115 -3 22 -34 11 -51 -36 -53 -32 -1 -47 -8 -74 -38 -20 -21 -40 -33
-46 -29 -8 5 -10 -1 -7 -20 4 -22 -1 -30 -31 -48 -20 -12 -46 -33 -59 -47 -54
-62 -88 -93 -131 -121 -60 -38 -101 -72 -101 -83 0 -5 -14 -22 -31 -38 -17
-16 -29 -34 -26 -41 10 -29 169 8 188 43 5 11 29 28 52 39 43 21 126 88 95 77
-10 -4 -27 -3 -38 1 -19 7 -19 8 5 44 l25 37 68 -6 c37 -3 75 -10 85 -15 25
-13 21 -38 -7 -38 -13 0 -38 -6 -56 -14 l-33 -14 41 -23 c73 -42 74 -109 1
-82 -25 10 -32 7 -75 -33 -26 -24 -55 -44 -66 -44 -10 0 -24 -11 -30 -25 -6
-14 -15 -25 -20 -25 -4 0 -8 -4 -8 -9 0 -10 102 40 129 62 9 8 38 22 64 31 56
21 77 11 77 -34 0 -33 -12 -44 -65 -60 -25 -7 -49 -24 -65 -46 -14 -18 -33
-34 -42 -34 -9 0 -31 -16 -49 -35 -19 -19 -39 -35 -45 -35 -6 0 -25 -7 -40
-15 -45 -23 -77 -19 -102 15 -27 36 -27 38 0 60 22 18 22 18 -44 25 -41 4 -79
3 -98 -3 -17 -6 -38 -8 -46 -5 -14 5 -14 3 -3 -14 14 -23 7 -51 -16 -60 -9 -3
-34 -22 -56 -42 -33 -29 -40 -41 -35 -61 8 -44 -7 -54 -38 -25 -15 14 -29 25
-32 25 -10 0 -3 -121 12 -169 16 -56 69 -123 115 -146 54 -28 100 -29 152 -1
59 32 61 32 42 2 -23 -35 -143 -56 -191 -32 -37 17 -51 8 -34 -23 16 -31 12
-32 -29 -8 -107 62 -124 97 -123 260 0 115 0 117 -18 94 -22 -27 -80 -140 -80
-155 0 -5 -16 -34 -36 -63 -86 -124 -116 -250 -95 -391 16 -105 45 -208 81
-278 39 -77 148 -241 176 -265 13 -11 24 -25 24 -29 0 -5 -18 -26 -40 -46 -35
-32 -40 -43 -38 -73 1 -25 -6 -45 -27 -73 -16 -22 -32 -41 -35 -44 -3 -3 -27
-32 -52 -65 -25 -33 -54 -69 -65 -80 -10 -11 -53 -64 -96 -118 l-78 -97 642 0
c353 0 640 2 638 5 -3 2 -32 13 -64 24 -137 45 -161 56 -137 59 l23 3 -25 20
c-13 10 -29 19 -35 19 -16 0 -71 63 -71 83 0 9 4 25 9 35 5 9 16 38 25 63 25
71 65 126 97 133 20 4 29 13 34 36 4 17 13 34 21 37 21 8 29 -4 14 -22 -9 -11
-10 -19 -3 -26 8 -8 13 -1 18 23 4 18 16 45 26 59 10 14 21 38 24 55 4 16 17
52 30 79 13 28 35 75 49 106 14 31 26 59 26 63 0 4 11 22 25 40 14 18 25 37
25 43 0 5 14 22 30 38 17 16 30 34 30 41 0 6 7 17 15 24 8 7 15 19 15 28 0 8
11 30 25 48 14 18 25 39 25 46 0 8 7 23 15 36 9 12 20 50 26 84 11 72 60 253
94 348 13 36 27 81 31 100 3 19 12 44 19 55 7 11 21 47 30 80 37 128 84 247
125 322 47 86 87 163 103 203 18 44 60 94 112 134 224 168 215 157 171 231
-75 124 -86 148 -74 162 7 8 44 31 82 50 39 20 90 49 113 65 70 48 304 188
314 188 5 0 9 4 9 9 0 5 9 12 19 16 11 3 37 21 58 40 21 19 41 35 45 35 4 0
17 14 29 32 17 23 26 58 36 136 7 58 18 111 25 118 10 10 34 9 113 -1 121 -17
158 -27 204 -59 63 -42 570 -122 571 -90 0 5 7 53 14 107 15 106 26 128 91
191 23 22 67 70 96 106 30 36 88 101 129 144 41 42 77 83 79 89 3 11 86 114
102 127 21 18 17 45 -12 78 -58 65 -67 100 -62 225 4 89 9 119 26 146 11 18
24 53 28 77 5 26 28 73 58 116 54 81 72 116 96 198 9 30 38 87 66 127 30 44
49 82 49 100 0 74 -73 189 -150 238 -23 15 -65 27 -110 34 -64 8 -80 7 -124
-10 -70 -26 -100 -24 -138 10 -25 22 -32 37 -32 65 l0 36 -838 0 c-749 0 -837
-2 -831 -15 7 -19 -21 -95 -54 -147 -21 -35 -25 -37 -48 -26 -14 6 -28 21 -31
32 -9 36 3 94 26 126 l21 30 -84 0 c-66 0 -86 -3 -91 -15 -3 -8 -12 -15 -20
-15 -7 0 -16 -7 -20 -15 -3 -8 -15 -15 -26 -15 -26 0 -82 28 -93 46 -7 12
-249 14 -1492 14 l-1485 0 0 -1204z m2275 1095 c42 -29 43 -33 27 -110 -14
-62 -41 -86 -94 -82 -64 4 -71 14 -66 98 3 67 6 76 33 98 38 31 51 31 100 -4z
m868 -4 c41 -15 5 -80 -42 -75 -20 2 -27 9 -29 30 -3 28 35 78 47 61 3 -5 14
-12 24 -16z m1704 -22 c30 -21 40 -88 18 -121 -24 -37 -65 -51 -195 -65 -104
-11 -118 -11 -148 5 -27 14 -32 21 -26 39 4 12 7 30 8 39 2 37 51 73 122 90
124 31 190 35 221 13z m-606 -70 c72 -20 126 -52 132 -76 10 -38 -29 -110 -84
-156 -46 -39 -56 -43 -103 -42 -28 0 -45 3 -38 6 25 10 11 23 -27 23 -53 0
-91 16 -91 37 0 23 -28 104 -42 120 -18 22 22 86 62 100 39 14 119 9 191 -12z
m-2499 -391 c37 -19 70 -69 67 -102 -5 -47 -36 -72 -89 -72 -26 0 -50 3 -54 8
-4 4 -24 12 -44 18 -20 6 -36 16 -34 22 1 7 -4 12 -12 12 -22 0 -28 17 -16 41
9 16 8 24 -6 40 -9 10 -14 19 -9 19 4 0 2 7 -5 15 -10 12 -2 15 57 17 79 4
108 0 145 -18z m-992 -89 c16 -20 9 -47 -17 -60 -11 -6 -28 -17 -37 -24 -22
-18 -46 -7 -46 22 0 26 16 50 45 65 27 15 40 15 55 -3z m3595 -60 c103 -118
121 -152 78 -148 -13 2 -23 -1 -23 -6 0 -12 -83 -9 -95 4 -14 15 -32 44 -56
91 l-21 40 23 27 c28 31 63 28 94 -8z m568 -163 c40 -41 52 -84 34 -119 -23
-42 -55 -73 -80 -75 -45 -3 -72 4 -90 23 -10 10 -21 19 -26 19 -4 0 -19 10
-32 23 -14 12 -37 30 -52 40 -33 21 -33 28 -4 63 17 19 41 31 83 40 99 21 136
18 167 -14z m-3139 -87 c-4 -8 -1 -15 5 -15 7 0 14 7 17 15 12 31 56 -26 45
-58 -6 -17 -8 -17 -30 2 -13 12 -30 21 -38 21 -7 0 -13 11 -13 25 0 14 4 25
10 25 5 0 7 -7 4 -15z m-1474 -131 c0 -7 -9 -18 -20 -24 -17 -9 -20 -8 -20 13
0 13 3 26 6 30 10 9 34 -4 34 -19z m3249 -123 l30 -29 -34 -16 c-40 -19 -77
-20 -122 -4 -45 16 -42 35 10 58 58 27 81 25 116 -9z m215 -46 c11 -8 16 -20
12 -30 -6 -17 20 -65 35 -65 5 0 9 7 9 15 0 8 5 15 10 15 6 0 10 -11 10 -24 0
-32 -38 -42 -62 -16 -10 11 -18 23 -18 27 -1 13 -66 51 -102 58 -40 9 -50 14
-43 24 8 14 129 11 149 -4z m-3059 -569 c40 -4 65 -26 65 -57 0 -9 8 -27 19
-40 28 -36 34 -80 17 -120 -22 -53 -48 -71 -103 -72 -89 -1 -127 47 -83 103
11 14 20 35 20 46 0 27 22 46 43 38 8 -3 18 -1 22 5 3 7 -3 11 -16 11 -12 0
-28 8 -35 18 -8 11 -13 12 -14 4 0 -19 -50 17 -50 37 0 18 36 38 60 34 8 -1
33 -4 55 -7z m2382 -132 c-3 -3 -12 -4 -19 -1 -8 3 -5 6 6 6 11 1 17 -2 13 -5z
m-2599 -89 c11 -9 -12 -45 -28 -45 -24 0 -31 11 -23 39 4 17 10 20 27 15 11
-4 23 -8 24 -9z m2845 -23 c66 -11 -9 -49 -83 -42 -62 6 -80 44 -21 46 17 1
34 4 38 8 4 4 14 4 22 0 9 -4 28 -9 44 -12z m60 -113 c-7 -7 -35 -14 -62 -17
-42 -4 -51 -2 -51 12 0 13 11 16 62 16 46 0 59 -3 51 -11z m123 -56 c-10 -10
-19 5 -10 18 6 11 8 11 12 0 2 -7 1 -15 -2 -18z m4 -48 c-7 -14 -18 -25 -24
-25 -5 0 -20 -9 -32 -21 l-21 -20 -6 20 c-3 14 0 21 10 21 8 0 17 9 20 21 4
16 11 19 29 15 18 -5 24 -2 24 10 0 10 3 14 7 11 3 -4 0 -18 -7 -32z m-105
-65 c11 -18 -45 -43 -103 -44 -44 -1 -57 2 -57 14 0 11 16 17 63 21 34 3 65 9
69 12 9 10 21 9 28 -3z m-727 -165 c-3 -31 -21 -38 -69 -25 -42 12 -42 19 -5
55 19 18 24 19 48 7 20 -10 27 -20 26 -37z m326 -201 c4 -9 4 -19 2 -21 -8 -8
-26 8 -26 23 0 19 16 18 24 -2z m-1227 -36 c13 -12 23 -30 23 -40 0 -16 -5
-18 -36 -12 -30 6 -36 4 -41 -15 -9 -36 -23 -23 -23 22 0 67 33 86 77 45z m15
-2420 c-13 -54 -61 -112 -77 -96 -12 11 4 43 40 81 41 43 45 45 37 15z"/>
<path d="M3720 4020 c0 -12 41 -30 53 -23 19 12 5 33 -23 33 -16 0 -30 -5 -30
-10z"/>
<path d="M5620 3546 c-34 -18 -188 -73 -227 -81 -18 -4 -33 -10 -33 -14 0 -13
64 -29 160 -41 52 -6 105 -13 118 -16 21 -4 22 -2 22 81 0 47 -3 85 -7 85 -5
-1 -19 -7 -33 -14z"/>
<path d="M4030 3295 c0 -64 -47 -131 -215 -308 -147 -156 -179 -194 -302 -364
-28 -40 -59 -80 -68 -90 -20 -22 -220 -342 -292 -468 -153 -270 -341 -650
-460 -935 -111 -266 -129 -311 -184 -450 -29 -74 -65 -154 -80 -177 -46 -74
-54 -121 -39 -234 l13 -99 91 -85 90 -85 1224 2 1225 3 13 50 c23 86 63 345
70 455 3 58 12 133 20 168 8 35 14 93 14 130 0 37 7 94 15 127 8 33 14 80 15
104 0 24 5 61 12 82 12 41 -4 143 -39 254 -9 28 -19 79 -23 115 -4 36 -18 103
-31 150 -22 80 -23 103 -24 390 -1 305 -1 305 -28 380 -24 69 -45 98 -102 138
-5 4 -30 23 -54 41 -40 32 -50 35 -143 42 -55 4 -101 9 -102 11 -17 29 -94
122 -114 138 -64 48 -166 122 -224 161 -80 54 -76 49 -191 260 -26 47 -55 97
-66 110 l-20 24 -1 -40z"/>
<path d="M0 2070 l0 -130 28 6 c15 4 41 13 59 21 18 7 42 13 53 13 11 0 20 5
20 10 0 6 8 10 18 10 11 0 54 9 98 21 43 12 89 23 102 26 12 3 22 9 22 14 0 5
18 9 41 9 47 0 50 20 3 31 -16 4 -54 14 -84 22 -30 8 -91 22 -135 31 -44 9
-108 23 -142 31 -34 8 -66 15 -72 15 -7 0 -11 -43 -11 -130z"/>
<path d="M1663 2086 c-15 -24 -18 -37 -11 -44 8 -8 8 -15 -2 -27 -7 -8 -8 -15
-3 -15 5 0 15 9 23 20 8 11 22 20 31 20 24 0 64 35 55 48 -4 7 -16 12 -26 12
-10 0 -22 5 -25 10 -10 16 -19 11 -42 -24z"/>
<path d="M1960 2020 c-8 -5 -11 -12 -7 -16 4 -4 15 0 24 9 18 18 8 23 -17 7z"/>
<path d="M5514 1960 c-29 -4 -57 -11 -63 -14 -6 -4 -11 -2 -11 3 0 6 -12 11
-27 11 -20 0 -24 -3 -16 -11 6 -6 9 -17 7 -24 -4 -9 14 -16 58 -23 35 -6 83
-16 108 -21 101 -25 91 -28 88 31 l-3 53 -45 1 c-25 1 -68 -2 -96 -6z"/>
</g>
</svg>
